<svg width="16" height="16" viewBox="0 0 16 16" fill="none" xmlns="http://www.w3.org/2000/svg">
<path d="M7.06135 0C6.28594 0 5.65515 0.63079 5.65515 1.4062V1.90618L6.59262 2.37491H7.06135H7.53008L8.46755 1.90618V1.4062C8.46755 0.63079 7.83676 0 7.06135 0Z" fill="#FF6A4D"/>
<path d="M8.46888 1.90618V1.4062C8.46888 0.63079 7.83809 0 7.06268 0V2.37491H7.53142L8.46888 1.90618Z" fill="#E64D2E"/>
<path d="M0 14.1251C0.217211 15.1948 1.20983 16.0001 2.34366 16.0001C3.4775 16.0001 4.50137 15.1948 4.71858 14.1251L3.70024 13.6564H0.650726L0 14.1251Z" fill="#474F54"/>
<path d="M2.34425 15.0612C1.56884 15.0612 0.938049 14.4304 0.938049 13.655C0.938049 12.8796 1.56884 12.2488 2.34425 12.2488C3.11966 12.2488 3.78169 12.8796 3.78169 13.655C3.78169 14.4304 3.11966 15.0612 2.34425 15.0612Z" fill="#F2F9FF"/>
<path d="M4.71916 5.68716H1.87551L0.938049 6.62463V9.43703L1.87551 9.90576H4.71916L6.12536 9.43703V6.90587L5.65663 6.62463L4.71916 5.68716Z" fill="#FF9100"/>
<path d="M0.938049 4.75049V6.62542H5.65663L6.12536 6.38277L5.65663 6.15669V4.75049H0.938049Z" fill="#FABE2C"/>
<path d="M7.53097 14.1237H0V13.655C0 11.8429 1.50026 10.3739 3.31238 10.3739L4.0936 9.90512H8.46844V13.3425L7.53097 14.1237Z" fill="#FF6A4D"/>
<path d="M0 9.43796H6.59351V10.3754H0V9.43796Z" fill="#32393F"/>
<path d="M9.87375 11.8097V13.5721L9.40501 14.1252H7.53008V10.3754H6.59262C6.07701 10.3754 5.65515 9.95351 5.65515 9.4379V7.09424H8.46755V8.50044C8.98315 8.50044 9.40501 8.9223 9.40501 9.4379V11.3128L9.87375 11.8097Z" fill="#575F64"/>
<path d="M9.87508 11.8097V13.5721L9.40635 14.1252H7.53142V10.3754H7.06268V7.09424H8.46888V8.50044C8.98449 8.50044 9.40635 8.9223 9.40635 9.4379V11.3128L9.87508 11.8097Z" fill="#474F54"/>
<path d="M8.46755 6.62542V6.15669C8.46755 5.38128 7.83676 4.75049 7.06135 4.75049C6.28594 4.75049 5.65515 5.38128 5.65515 6.15669V7.09415C5.65515 7.87078 6.28472 8.50035 7.06135 8.50035H10.8425C11.6191 8.50035 12.2487 7.87078 12.2487 7.09415V6.62542H8.46755Z" fill="#FF6A4D"/>
<path d="M12.2499 7.09415V6.62542H8.46876V6.15669C8.46876 5.38128 7.83797 4.75049 7.06256 4.75049V8.50035H10.8437C11.6203 8.50035 12.2499 7.87078 12.2499 7.09415Z" fill="#E64D2E"/>
<path d="M7.53008 2.37524H7.06135H6.59262L5.65515 2.84398V3.31271C5.65515 4.08812 6.28594 4.75016 7.06135 4.75016C7.83676 4.75016 8.46755 4.08812 8.46755 3.31271V2.84398L7.53008 2.37524Z" fill="#FFE1BA"/>
<path d="M8.46888 3.31271V2.84398L7.53142 2.37524H7.06268V4.75016C7.83809 4.75016 8.46888 4.08812 8.46888 3.31271Z" fill="#FFBFAB"/>
<path d="M7.06135 1.90622H5.65515V2.84368H7.06135H9.40501V1.90622H7.06135Z" fill="#474F54"/>
<path d="M7.06268 1.90622H9.40635V2.84368H7.06268V1.90622Z" fill="#32393F"/>
<path d="M13.5418 9.54164C13.4901 9.17681 13.3876 8.45815 13.183 7.02676L11.3126 6.1557V9.90556C11.3126 10.645 10.6756 11.3118 9.87517 11.3118H9.40643V14.1242H10.3439H15.0625L15.9999 13.6554V12.718C15.9999 11.2184 14.9654 9.91106 13.5418 9.54164Z" fill="#E64D2E"/>
<path d="M14.1251 7.56289H12.7189C11.9435 7.56289 11.3127 6.9321 11.3127 6.15669C11.3127 5.38128 11.9435 4.75049 12.7189 4.75049H14.1251V7.56289Z" fill="#FF6A4D"/>
<path d="M13.7972 11.3252L13.6609 11.846L12.8687 11.4569C11.9647 11.7822 11.3127 12.6399 11.3127 13.6546C11.3127 14.9468 12.3641 15.9982 13.6563 15.9982C14.9486 15.9982 16 14.9468 16 13.6546C16 12.4106 15.0228 11.3997 13.7972 11.3252Z" fill="#32393F"/>
<path d="M13.655 12.2488C12.8796 12.2488 12.2488 12.8796 12.2488 13.655C12.2488 14.4304 12.8796 15.0612 13.655 15.0612C14.4304 15.0612 15.0612 14.4304 15.0612 13.655C15.0612 12.8796 14.4304 12.2488 13.655 12.2488Z" fill="#DFE7F4"/>
<path d="M14.1207 13.5899L13.7975 11.3269C13.7499 11.324 13.7048 11.3127 13.6566 11.3127C13.379 11.3127 13.1162 11.3697 12.869 11.4586L13.1924 13.7227L14.1207 13.5899Z" fill="#C7CFE1"/>
</svg>
