<svg width="20" height="20" viewBox="0 0 20 20" fill="none" xmlns="http://www.w3.org/2000/svg">
<path fill-rule="evenodd" clip-rule="evenodd" d="M5.67865 14.0051C5.34851 14.0051 5.08057 13.7372 5.08057 13.407V7.93657C5.08057 7.60643 5.34851 7.33849 5.67865 7.33849C6.00879 7.33849 6.27673 7.60643 6.27673 7.93657V13.407C6.27673 13.7372 6.00879 14.0051 5.67865 14.0051Z" fill="black"/>
<path fill-rule="evenodd" clip-rule="evenodd" d="M9.40033 14.0043C9.07019 14.0043 8.80225 13.7364 8.80225 13.4062V5.31775C8.80225 4.98761 9.07019 4.71967 9.40033 4.71967C9.73047 4.71967 9.99841 4.98761 9.99841 5.31775V13.4062C9.99841 13.7364 9.73047 14.0043 9.40033 14.0043Z" fill="black"/>
<path fill-rule="evenodd" clip-rule="evenodd" d="M13.0609 14.0043C12.7307 14.0043 12.4628 13.7364 12.4628 13.4062V10.8273C12.4628 10.4972 12.7307 10.2292 13.0609 10.2292C13.391 10.2292 13.6589 10.4972 13.6589 10.8273V13.4062C13.6589 13.7364 13.391 14.0043 13.0609 14.0043Z" fill="black"/>
<path fill-rule="evenodd" clip-rule="evenodd" d="M5.63313 1.99361C3.42261 1.99361 1.99359 3.50636 1.99359 5.84925V12.8907C1.99359 15.2336 3.42261 16.7463 5.63313 16.7463H13.1068C15.3181 16.7463 16.7463 15.2336 16.7463 12.8907V5.84925C16.7463 3.50636 15.3181 1.99361 13.1068 1.99361H5.63313ZM13.1068 17.9425H5.63313C2.7408 17.9425 0.797424 15.9122 0.797424 12.8907V5.84925C0.797424 2.82773 2.7408 0.79744 5.63313 0.79744H13.1068C15.9991 0.79744 17.9425 2.82773 17.9425 5.84925V12.8907C17.9425 15.9122 15.9991 17.9425 13.1068 17.9425Z" fill="black"/>
</svg>
