<svg width="16" height="17" viewBox="0 0 16 17" fill="none" xmlns="http://www.w3.org/2000/svg">
<path d="M10.0627 6.69345H14.7078V15.4676C14.7078 15.7414 14.5991 16.0039 14.4055 16.1975C14.2119 16.3911 13.9493 16.4999 13.6756 16.4999H9.80463V6.69345H10.0627Z" fill="#FFAD39"/>
<path d="M6.19208 6.69345V16.4999H2.32113C2.04736 16.4999 1.7848 16.3911 1.59122 16.1975C1.39763 16.0039 1.28888 15.7414 1.28888 15.4676V6.69345H6.19208Z" fill="#FFAD39"/>
<path d="M5.93546 3.59671V6.69347H0.516127C0.379367 6.69306 0.248325 6.63855 0.151621 6.54185C0.0549171 6.44515 0.000408444 6.3141 0 6.17734V4.11284C0.000408444 3.97608 0.0549171 3.84504 0.151621 3.74833C0.248325 3.65163 0.379367 3.59712 0.516127 3.59671H5.93546Z" fill="#FEBD55"/>
<path d="M16.0009 4.11284V6.17734C16.0005 6.3141 15.946 6.44515 15.8493 6.54185C15.7526 6.63855 15.6216 6.69306 15.4848 6.69347H10.0655V3.59671H15.4848C15.6216 3.59712 15.7526 3.65163 15.8493 3.74833C15.946 3.84504 16.0005 3.97608 16.0009 4.11284Z" fill="#FEBD55"/>
<path d="M9.29127 3.08076V3.59689H6.71063V3.08076C6.71104 2.944 6.76555 2.81296 6.86225 2.71626C6.95896 2.61955 7.09 2.56504 7.22676 2.56464H8.77514C8.9119 2.56504 9.04294 2.61955 9.13964 2.71626C9.23635 2.81296 9.29086 2.944 9.29127 3.08076Z" fill="#CB3541"/>
<path d="M8.77514 3.08039H7.22676C7.13664 3.07989 7.04823 3.05581 6.97031 3.01053C6.89239 2.96526 6.82769 2.90037 6.78263 2.82233C6.73605 2.90039 6.71119 2.98949 6.71063 3.08039V3.59652H9.29127V3.08039C9.29071 2.98949 9.26585 2.90039 9.21927 2.82233C9.17421 2.90037 9.1095 2.96526 9.03159 3.01053C8.95367 3.05581 8.86525 3.07989 8.77514 3.08039Z" fill="#A81E29"/>
<path d="M6.71129 3.08054V3.59667H2.84034C2.73808 3.59885 2.63642 3.58031 2.54151 3.54218C2.44659 3.50405 2.36038 3.4471 2.28805 3.37477C2.21572 3.30244 2.15877 3.21622 2.12064 3.12131C2.0825 3.02639 2.06397 2.92474 2.06615 2.82248C2.06615 1.79022 3.35647 1.79022 3.35647 1.79022C4.59493 1.79549 5.78849 2.25455 6.71129 3.08054Z" fill="#E03E3E"/>
<path d="M4.64243 0.5C6.70694 0.5 6.70694 3.08063 6.70694 3.08063C5.78414 2.25465 4.59057 1.79558 3.35211 1.79032C3.35211 1.79032 3.35211 0.5 4.64243 0.5Z" fill="#CB3541"/>
<path d="M9.28925 3.08063C9.28925 3.08063 9.28925 0.5 11.3538 0.5C12.6441 0.5 12.6441 1.79032 12.6441 1.79032C11.4056 1.79558 10.212 2.25465 9.28925 3.08063Z" fill="#CB3541"/>
<path d="M9.28925 3.08054C10.212 2.25455 11.4056 1.79549 12.6441 1.79022C12.6441 1.79022 13.9344 1.79022 13.9344 2.82248C13.9366 2.92474 13.918 3.02639 13.8799 3.12131C13.8418 3.21622 13.7848 3.30244 13.7125 3.37477C13.6402 3.4471 13.5539 3.50405 13.459 3.54218C13.3641 3.58031 13.2625 3.59885 13.1602 3.59667H9.28925V3.08054Z" fill="#E03E3E"/>
<path d="M6.19525 6.69345H9.80814V16.4999H6.19525V6.69345Z" fill="#CB3541"/>
<path d="M10.0634 3.59671V6.69347H9.80534H6.19245H5.93439V3.59671H6.70858H9.28921H10.0634Z" fill="#FF6161"/>
<path d="M15.3871 11.1529C15.4413 11.3981 15.9987 11.5916 15.9987 11.8548C15.9987 12.1181 15.4413 12.3116 15.3871 12.5568C15.3303 12.8097 15.7484 13.2329 15.6426 13.46C15.5316 13.6923 14.9484 13.62 14.791 13.8213C14.6336 14.0226 14.8349 14.5877 14.6387 14.7477C14.4426 14.9077 13.9471 14.5826 13.72 14.6961C13.4981 14.8071 13.4362 15.4058 13.191 15.4626C12.951 15.5193 12.6413 15.0084 12.3858 15.0084C12.1304 15.0084 11.8207 15.5193 11.5807 15.4626C11.3355 15.4058 11.2736 14.8071 11.0491 14.6961C10.8246 14.5852 10.3265 14.9077 10.1329 14.7477C9.9394 14.5877 10.1355 14.02 9.9781 13.8213C9.82069 13.6226 9.24004 13.6923 9.12908 13.46C9.02327 13.2329 9.44133 12.8097 9.38456 12.5568C9.33037 12.3116 8.77295 12.1181 8.77295 11.8548C8.77295 11.5916 9.33037 11.3981 9.38456 11.1529C9.44133 10.9 9.02327 10.4768 9.12908 10.2497C9.24004 10.0174 9.82327 10.0897 9.98069 9.88839C10.1381 9.68711 9.93682 9.12195 10.1329 8.96195C10.3291 8.80195 10.8246 9.12711 11.0516 9.01356C11.2736 8.90259 11.3355 8.30388 11.5807 8.24711C11.8207 8.19034 12.1304 8.7013 12.3858 8.7013C12.6413 8.7013 12.951 8.19034 13.191 8.24711C13.4362 8.30388 13.4981 8.90259 13.7226 9.01356C13.9471 9.12453 14.4452 8.80195 14.6387 8.96195C14.8323 9.12195 14.6362 9.68969 14.7936 9.88839C14.951 10.0871 15.5316 10.0174 15.6426 10.2497C15.7484 10.4768 15.3303 10.9 15.3871 11.1529Z" fill="#CB3541"/>
<path d="M15.2266 11.8549C15.2266 12.0613 14.7879 12.2139 14.7458 12.4064C14.7017 12.6056 15.0297 12.9375 14.9458 13.1171C14.8619 13.2967 14.4008 13.2425 14.2785 13.3991C14.1561 13.5558 14.3115 14.0025 14.1579 14.1282C14.0044 14.2538 13.616 13.9991 13.4372 14.0871C13.2583 14.1751 13.2137 14.6451 13.0196 14.6902C12.8315 14.7341 12.5889 14.3318 12.3879 14.3318C12.1869 14.3318 11.9443 14.7341 11.7562 14.6902C11.5618 14.6451 11.5138 14.1741 11.3386 14.0871C11.1634 14.0002 10.7709 14.2533 10.6178 14.1282C10.4648 14.003 10.6199 13.5566 10.4971 13.3991C10.3742 13.2417 9.91564 13.3 9.82971 13.1168C9.74377 12.9336 10.0741 12.6053 10.03 12.4064C9.9879 12.2136 9.54919 12.0613 9.54919 11.8549C9.54919 11.6484 9.9879 11.4959 10.03 11.3034C10.0741 11.1042 9.7461 10.7723 9.82997 10.5927C9.91384 10.4131 10.375 10.4673 10.4973 10.3106C10.6196 10.154 10.4643 9.70729 10.6178 9.58161C10.7714 9.45593 11.1598 9.71064 11.3386 9.62264C11.5174 9.53464 11.5621 9.06471 11.7562 9.01955C11.9443 8.97568 12.1869 9.378 12.3879 9.378C12.5889 9.378 12.8315 8.97568 13.0196 9.01955C13.214 9.06471 13.262 9.53567 13.4372 9.62264C13.6124 9.70961 14.0049 9.45645 14.1579 9.58161C14.311 9.70677 14.1559 10.1532 14.2787 10.3106C14.4016 10.4681 14.8601 10.4105 14.9461 10.593C15.032 10.7754 14.7017 11.1044 14.7458 11.3034C14.7879 11.4962 15.2266 11.6484 15.2266 11.8549Z" fill="#FF6161"/>
<path d="M13.1593 13.9194C13.0061 13.9194 12.8565 13.874 12.7291 13.789C12.6018 13.7039 12.5026 13.583 12.444 13.4415C12.3854 13.3001 12.3701 13.1444 12.3999 12.9942C12.4298 12.844 12.5036 12.7061 12.6118 12.5978C12.7201 12.4895 12.858 12.4158 13.0082 12.3859C13.1584 12.3561 13.3141 12.3714 13.4555 12.43C13.597 12.4886 13.7179 12.5878 13.803 12.7151C13.8881 12.8425 13.9335 12.9921 13.9335 13.1453C13.9335 13.3506 13.8519 13.5475 13.7067 13.6927C13.5615 13.8379 13.3646 13.9194 13.1593 13.9194ZM13.1593 12.8872C13.1082 12.8872 13.0583 12.9023 13.0159 12.9307C12.9735 12.959 12.9404 12.9993 12.9208 13.0465C12.9013 13.0937 12.8962 13.1455 12.9062 13.1956C12.9161 13.2457 12.9407 13.2916 12.9768 13.3277C13.0129 13.3638 13.0589 13.3884 13.1089 13.3984C13.159 13.4083 13.2109 13.4032 13.258 13.3837C13.3052 13.3641 13.3455 13.3311 13.3738 13.2886C13.4022 13.2462 13.4173 13.1963 13.4173 13.1453C13.4173 13.0768 13.3901 13.0112 13.3417 12.9628C13.2933 12.9144 13.2277 12.8872 13.1593 12.8872Z" fill="#FBFBFB"/>
<path d="M11.6104 11.3385C11.4573 11.3385 11.3076 11.2931 11.1803 11.2081C11.053 11.123 10.9538 11.0021 10.8952 10.8606C10.8366 10.7192 10.8212 10.5635 10.8511 10.4133C10.881 10.2631 10.9547 10.1252 11.063 10.0169C11.1713 9.90864 11.3092 9.83491 11.4594 9.80504C11.6096 9.77516 11.7652 9.7905 11.9067 9.84909C12.0482 9.90769 12.1691 10.0069 12.2542 10.1342C12.3392 10.2616 12.3846 10.4112 12.3846 10.5644C12.3846 10.7697 12.3031 10.9666 12.1579 11.1118C12.0127 11.257 11.8158 11.3385 11.6104 11.3385ZM11.6104 10.3063C11.5594 10.3063 11.5095 10.3214 11.4671 10.3498C11.4246 10.3781 11.3915 10.4184 11.372 10.4656C11.3525 10.5128 11.3474 10.5646 11.3573 10.6147C11.3673 10.6648 11.3919 10.7107 11.428 10.7468C11.464 10.7829 11.51 10.8075 11.5601 10.8175C11.6101 10.8274 11.662 10.8223 11.7092 10.8028C11.7563 10.7832 11.7967 10.7502 11.825 10.7077C11.8534 10.6653 11.8685 10.6154 11.8685 10.5644C11.8685 10.4959 11.8413 10.4303 11.7929 10.3819C11.7445 10.3335 11.6789 10.3063 11.6104 10.3063Z" fill="#FBFBFB"/>
<path d="M11.0943 13.4032C11.0432 13.4032 10.9933 13.3881 10.9509 13.3597C10.9085 13.3314 10.8754 13.2911 10.8559 13.2439C10.8364 13.1968 10.8312 13.1449 10.8412 13.0948C10.8512 13.0448 10.8757 12.9988 10.9118 12.9627L13.4924 10.3821C13.5411 10.3351 13.6063 10.3091 13.674 10.3096C13.7416 10.3102 13.8063 10.3374 13.8542 10.3852C13.902 10.4331 13.9292 10.4978 13.9298 10.5655C13.9304 10.6331 13.9043 10.6983 13.8573 10.747L11.2767 13.3276C11.2283 13.376 11.1627 13.4032 11.0943 13.4032Z" fill="#FBFBFB"/>
<path d="M14.7078 7.7257V6.69345H10.0627H9.80463V7.7257H14.7078Z" fill="#E68C15"/>
<path d="M13.6756 15.4675H9.80463V16.4997H13.6756C13.9493 16.4997 14.2119 16.391 14.4055 16.1974C14.5991 16.0038 14.7078 15.7413 14.7078 15.4675V14.4352C14.7078 14.709 14.5991 14.9716 14.4055 15.1652C14.2119 15.3587 13.9493 15.4675 13.6756 15.4675Z" fill="#E68C15"/>
<path d="M2.5792 10.8225V8.75796C2.5792 8.48419 2.68795 8.22163 2.88154 8.02804C3.07512 7.83446 3.33768 7.7257 3.61145 7.7257H6.19208V6.69345H1.28888V15.4676C1.28888 15.7414 1.39763 16.0039 1.59122 16.1975C1.7848 16.3911 2.04736 16.4999 2.32113 16.4999H6.19208V15.3486C5.16631 15.1148 4.25028 14.5398 3.59394 13.7175C2.9376 12.8953 2.57984 11.8745 2.5792 10.8225Z" fill="#E68C15"/>
<path d="M7.22751 15.4677C6.88006 15.4667 6.53382 15.4268 6.19525 15.3488V16.5H9.80814V15.4677H7.22751Z" fill="#A81E29"/>
<path d="M6.19525 6.69345H9.80814V7.7257H6.19525V6.69345Z" fill="#A81E29"/>
<path d="M2.70967 5.40315C2.47012 5.40315 2.24038 5.30799 2.07099 5.13861C1.9016 4.96922 1.80644 4.73948 1.80644 4.49993C1.80644 4.26038 1.9016 4.03064 2.07099 3.86126C2.24038 3.69187 2.47012 3.59671 2.70967 3.59671H0.516127C0.379367 3.59712 0.248325 3.65163 0.151621 3.74833C0.0549171 3.84504 0.000408444 3.97608 0 4.11284V6.17734C0.000408444 6.3141 0.0549171 6.44515 0.151621 6.54185C0.248325 6.63855 0.379367 6.69306 0.516127 6.69347H5.93546V5.40315H2.70967Z" fill="#FFA930"/>
<path d="M15.4848 5.40306H10.0655V6.69338H15.4848C15.6216 6.69297 15.7526 6.63846 15.8493 6.54176C15.946 6.44505 16.0005 6.31401 16.0009 6.17725V4.88693C16.0009 5.02382 15.9466 5.1551 15.8498 5.25189C15.753 5.34868 15.6217 5.40306 15.4848 5.40306Z" fill="#FFA930"/>
<path d="M5.93439 5.40323V6.69355H6.19245H9.80534H10.0634V5.40323H5.93439Z" fill="#CB3541"/>
<path d="M5.67468 1.79044C5.67468 1.79044 4.16888 1.28953 3.38514 1.52386C3.36636 1.61158 3.35531 1.70078 3.35211 1.79044C4.59057 1.7957 5.78414 2.25476 6.70694 3.08075C6.70694 3.08075 6.70694 1.94192 6.10049 1.17728C6.10126 1.50373 6.00758 1.79044 5.67468 1.79044Z" fill="#A81E29"/>
<path d="M10.5796 1.79047C10.1512 1.79047 10.1184 1.31641 10.1741 0.89267C9.28925 1.61473 9.28925 3.08079 9.28925 3.08079C10.212 2.2548 11.4056 1.79574 12.6441 1.79047C12.6403 1.68308 12.6254 1.57636 12.5997 1.47202C11.7842 1.38944 10.5796 1.79047 10.5796 1.79047Z" fill="#A81E29"/>
<path d="M5.64697 2.50797C5.65505 2.54573 5.65463 2.58482 5.64573 2.6224C5.63682 2.65997 5.61967 2.6951 5.5955 2.72522C5.57134 2.75534 5.54077 2.7797 5.50601 2.79654C5.47126 2.81337 5.4332 2.82226 5.39458 2.82255H2.83975C2.70287 2.82255 2.57159 2.76818 2.4748 2.67138C2.378 2.57459 2.32363 2.44331 2.32363 2.30643V2.16785C2.23811 2.25351 2.17108 2.35582 2.12669 2.46843C2.0823 2.58105 2.0615 2.70158 2.06556 2.82255C2.06338 2.92482 2.08191 3.02647 2.12005 3.12139C2.15818 3.2163 2.21513 3.30252 2.28746 3.37485C2.35979 3.44718 2.44601 3.50412 2.54092 3.54226C2.63584 3.58039 2.73749 3.59893 2.83975 3.59674H6.7107V3.08062C6.37742 2.77487 6.00101 2.51975 5.59355 2.32346C5.61611 2.38349 5.63397 2.44518 5.64697 2.50797Z" fill="#CB3541"/>
<path d="M13.4183 2.82259H10.8634C10.8248 2.82237 10.7866 2.81354 10.7518 2.79674C10.717 2.77993 10.6864 2.75558 10.6622 2.72545C10.6379 2.69532 10.6207 2.66017 10.6118 2.62256C10.6029 2.58494 10.6024 2.54581 10.6105 2.50801C10.6346 2.39249 10.6755 2.28112 10.7318 2.17743C10.2013 2.39079 9.71288 2.69661 9.28925 3.08065V3.59678H13.1602C13.2625 3.59896 13.3641 3.58043 13.459 3.54229C13.5539 3.50416 13.6402 3.44721 13.7125 3.37488C13.7848 3.30255 13.8418 3.21633 13.8799 3.12142C13.918 3.0265 13.9366 2.92485 13.9344 2.82259C13.9347 2.71923 13.9191 2.61645 13.8882 2.51781C13.8475 2.60846 13.7815 2.68543 13.6982 2.73949C13.6148 2.79355 13.5176 2.82241 13.4183 2.82259Z" fill="#CB3541"/>
<path d="M12.6476 8.57733V3.59671H12.1315V8.57733C12.1625 8.61594 12.2018 8.64708 12.2465 8.66849C12.2911 8.68989 12.34 8.701 12.3895 8.701C12.4391 8.701 12.488 8.68989 12.5326 8.66849C12.5773 8.64708 12.6166 8.61594 12.6476 8.57733Z" fill="#A81E29"/>
<path d="M9.13068 13.4599C9.02488 13.2328 9.44294 12.8095 9.38617 12.5566C9.33197 12.3115 8.77456 12.1179 8.77456 11.8547C8.77456 11.5915 9.33197 11.3979 9.38617 11.1528C9.42797 10.9662 9.21223 10.6883 9.13817 10.4619C8.92346 10.591 8.45482 10.5598 8.35649 10.7657C8.25069 10.9928 8.66875 11.416 8.61198 11.6689C8.55778 11.9141 8.00037 12.1076 8.00037 12.3708C8.00037 12.6341 8.55778 12.8276 8.61198 13.0728C8.66875 13.3257 8.25069 13.7489 8.35649 13.976C8.46746 14.2083 9.05068 14.136 9.20552 14.3373C9.36036 14.5386 9.16423 15.1037 9.36036 15.2637C9.45713 15.3437 9.63004 15.3024 9.80681 15.2552V13.7164C9.57223 13.6377 9.21507 13.6366 9.13068 13.4599Z" fill="#961B25"/>
<path d="M11.5839 15.4626C11.3387 15.4058 11.2768 14.8071 11.0523 14.6962C10.8278 14.5852 10.3297 14.9078 10.1362 14.7478C9.9426 14.5878 10.1387 14.02 9.98131 13.8213C9.93501 13.7704 9.87496 13.734 9.80841 13.7166V15.2554C9.9566 15.1922 10.1209 15.1771 10.2781 15.2123C10.3671 15.2754 10.4341 15.3647 10.4698 15.4678C10.5687 15.6794 10.6505 15.9421 10.8097 15.9787C11.0497 16.0355 11.3594 15.5245 11.6149 15.5245C11.8703 15.5245 12.18 16.0355 12.42 15.9787C12.5787 15.9421 12.6608 15.6794 12.7591 15.4678C12.7849 15.41 12.8164 15.355 12.853 15.3034C12.6959 15.1715 12.5338 15.0084 12.3885 15.0084C12.1336 15.0084 11.8239 15.5194 11.5839 15.4626Z" fill="#E68C15"/>
<path d="M13.9527 14.683C13.8757 14.6635 13.7947 14.6681 13.7204 14.6962C13.5754 14.7687 13.4982 15.0477 13.394 15.2495C13.5788 15.299 13.7625 15.3475 13.8649 15.2639C13.986 15.1651 13.9563 14.9101 13.9527 14.683Z" fill="#E68C15"/>
<path d="M11.0561 9.01339C11.0951 8.99035 11.1283 8.95865 11.1531 8.92074C11.0326 8.82036 10.9152 8.73829 10.8109 8.76306C10.726 8.78268 10.6636 8.86913 10.6083 8.97623C10.7498 9.03588 10.9067 9.0489 11.0561 9.01339Z" fill="#E68C15"/>
<path d="M11.5843 8.24708C11.6379 8.24462 11.6914 8.25363 11.7413 8.27353C11.7911 8.29342 11.8361 8.32373 11.8733 8.36244V6.69354H11.3572V8.5085C11.4183 8.37895 11.4862 8.26979 11.5843 8.24708Z" fill="#E68C15"/>
<path d="M9.80664 9.48623C9.63038 9.43926 9.458 9.39849 9.36019 9.47823C9.22522 9.58842 9.2758 9.89113 9.2709 10.1332C9.41954 10.0674 9.64148 10.0486 9.80664 9.99384V9.48623Z" fill="#961B25"/>
</svg>
