<svg width="18" height="18" viewBox="0 0 18 18" fill="none" stroke="#474F54" stroke-width="0.1"  xmlns="http://www.w3.org/2000/svg">
<path fill-rule="evenodd" clip-rule="evenodd" d="M6.16297 5.02669C6.13746 5.02669 6.11194 5.02988 6.08642 5.03626C3.71801 5.61919 1.79138 8.18537 1.79138 10.7563C1.79138 13.9908 4.42295 16.6223 7.65818 16.6223C10.5744 16.6223 13.0114 14.545 13.4532 11.6822C13.4564 11.6582 13.4676 11.5889 13.4022 11.5115C13.34 11.4389 13.2411 11.3959 13.1374 11.3959C12.0122 11.3959 11.1534 11.4214 10.4827 11.4405C8.85913 11.4892 8.18769 11.5075 7.52421 11.0155C6.52422 10.2747 6.43969 9.00195 6.43969 5.25874C6.43969 5.19176 6.41098 5.13594 6.35356 5.09128C6.30013 5.04902 6.23235 5.02669 6.16297 5.02669ZM7.65818 17.8185C3.76346 17.8185 0.595215 14.6502 0.595215 10.7563C0.595215 7.66862 2.93013 4.58092 5.80014 3.87438C6.2483 3.76513 6.72996 3.8672 7.092 4.1495C7.43729 4.42063 7.63585 4.82493 7.63585 5.25874C7.63585 8.75554 7.75388 9.69652 8.23633 10.0546C8.55291 10.2882 8.98672 10.2858 10.4484 10.2452C11.1279 10.2252 11.9979 10.1997 13.1374 10.1997C13.592 10.1997 14.0202 10.3943 14.3105 10.7332C14.58 11.0482 14.698 11.4597 14.6358 11.8648C14.1031 15.3137 11.1685 17.8185 7.65818 17.8185Z" fill="black"/>
<mask id="mask0_56_1072" style="mask-type:alpha" maskUnits="userSpaceOnUse" x="8" y="0" width="10" height="10">
<path fill-rule="evenodd" clip-rule="evenodd" d="M8.94739 0.797836H17.2559V9.00298H8.94739V0.797836Z" fill="white"/>
</mask>
<g mask="url(#mask0_56_1072)">
<path fill-rule="evenodd" clip-rule="evenodd" d="M10.1729 1.99504C10.0851 4.0038 10.2151 6.59869 10.2757 7.6266C10.2789 7.688 10.3236 7.73266 10.3842 7.73585C11.204 7.78289 14.0285 7.91368 16.0596 7.61463C16.0644 6.49502 15.298 4.97669 14.1441 3.82358C12.9607 2.64177 11.5604 1.99504 10.1904 1.99504H10.1729ZM12.8076 9.00299C11.763 9.00299 10.8435 8.96072 10.3148 8.93042C9.64974 8.89134 9.12024 8.36104 9.08196 7.69597C9.01976 6.64175 8.88499 3.96313 8.98068 1.89137C9.007 1.2893 9.49344 0.810038 10.0883 0.799672C11.7925 0.75023 13.5508 1.5413 14.9894 2.97749C16.3913 4.3786 17.2813 6.2199 17.2558 7.66886C17.2462 8.23425 16.8355 8.70634 16.2805 8.79007C15.1976 8.95354 13.9296 9.00299 12.8076 9.00299Z" fill="black"/>
</g>
</svg>
