<svg width="20" height="20" viewBox="0 0 20 20" fill="none" xmlns="http://www.w3.org/2000/svg">
<g clip-path="url(#clip0_0_2225)">
<path d="M10 6.66667C10.9167 6.66667 11.6667 5.91667 11.6667 5C11.6667 4.08334 10.9167 3.33334 10 3.33334C9.08337 3.33334 8.33337 4.08334 8.33337 5C8.33337 5.91667 9.08337 6.66667 10 6.66667ZM10 8.33334C9.08337 8.33334 8.33337 9.08334 8.33337 10C8.33337 10.9167 9.08337 11.6667 10 11.6667C10.9167 11.6667 11.6667 10.9167 11.6667 10C11.6667 9.08334 10.9167 8.33334 10 8.33334ZM10 13.3333C9.08337 13.3333 8.33337 14.0833 8.33337 15C8.33337 15.9167 9.08337 16.6667 10 16.6667C10.9167 16.6667 11.6667 15.9167 11.6667 15C11.6667 14.0833 10.9167 13.3333 10 13.3333Z" fill="#1DB385"/>
</g>
<defs>
<clipPath id="clip0_0_2225">
<rect width="20" height="20" fill="white"/>
</clipPath>
</defs>
</svg>
