<svg width="15" height="18" viewBox="0 0 15 18" fill="none" stroke="#474F54" stroke-width="0.1" xmlns="http://www.w3.org/2000/svg">
<mask id="mask0_56_912" style="mask-type:alpha" maskUnits="userSpaceOnUse" x="0" y="0" width="15" height="18">
<path fill-rule="evenodd" clip-rule="evenodd" d="M0.500244 0.6763H14.7076V17.2171H0.500244V0.6763Z" fill="white"/>
</mask>
<g mask="url(#mask0_56_912)">
<path fill-rule="evenodd" clip-rule="evenodd" d="M4.31011 1.92569C2.92959 1.92569 1.78319 3.04377 1.7507 4.42262V13.3331C1.71987 14.7602 2.84461 15.9358 4.25762 15.9675H10.9761C12.3666 15.91 13.468 14.7544 13.458 13.3381V5.9481L9.5964 1.92569H4.32011H4.31011ZM4.32029 17.2175H4.22947C2.12829 17.17 0.455341 15.4221 0.501163 13.3201V4.40794C0.549486 2.34092 2.25659 0.6763 4.30862 0.6763H4.32279H9.86318C10.0331 0.6763 10.1956 0.745451 10.3139 0.867923L14.5338 5.26441C14.6454 5.38022 14.7079 5.53602 14.7079 5.69682V13.3334C14.7229 15.4238 13.0949 17.1317 11.0013 17.2167L4.32029 17.2175Z" fill="black"/>
</g>
<path fill-rule="evenodd" clip-rule="evenodd" d="M14.0791 6.4856H11.7838C10.2591 6.48143 9.01941 5.23838 9.01941 3.7154V1.29179C9.01941 0.946867 9.29934 0.666931 9.64427 0.666931C9.98919 0.666931 10.2691 0.946867 10.2691 1.29179V3.7154C10.2691 4.55187 10.9498 5.23338 11.7854 5.23588H14.0791C14.424 5.23588 14.7039 5.51582 14.7039 5.86074C14.7039 6.20566 14.424 6.4856 14.0791 6.4856Z" fill="black"/>
<path fill-rule="evenodd" clip-rule="evenodd" d="M9.48845 12.4215H4.98948C4.64456 12.4215 4.36462 12.1416 4.36462 11.7966C4.36462 11.4517 4.64456 11.1718 4.98948 11.1718H9.48845C9.83337 11.1718 10.1133 11.4517 10.1133 11.7966C10.1133 12.1416 9.83337 12.4215 9.48845 12.4215Z" fill="black"/>
<path fill-rule="evenodd" clip-rule="evenodd" d="M7.78496 9.29457H4.98893C4.64401 9.29457 4.36407 9.01464 4.36407 8.66972C4.36407 8.3248 4.64401 8.04486 4.98893 8.04486H7.78496C8.12988 8.04486 8.40981 8.3248 8.40981 8.66972C8.40981 9.01464 8.12988 9.29457 7.78496 9.29457Z" fill="black"/>
</svg>
