<svg width="20" height="20" viewBox="0 0 20 20" fill="none" stroke="#474F54" stroke-width="0.5" xmlns="http://www.w3.org/2000/svg">
<g opacity="0.6" clip-path="url(#clip0_56_892)">
<path fill-rule="evenodd" clip-rule="evenodd" d="M15.0698 9.78774C14.7632 9.78774 14.4958 9.56195 14.4516 9.2495C14.4041 8.90705 14.6416 8.59126 14.984 8.54377C15.8506 8.42212 16.5046 7.67057 16.5063 6.79404C16.5063 5.92501 15.883 5.19013 15.024 5.04931C14.6841 4.99349 14.4533 4.67187 14.5091 4.33109C14.5658 3.99031 14.8849 3.76201 15.2273 3.81617C16.6921 4.05697 17.7561 5.31011 17.7561 6.79571C17.7528 8.29131 16.6354 9.57444 15.1565 9.78191C15.1273 9.78608 15.0982 9.78774 15.0698 9.78774Z" fill="black"/>
<mask id="mask0_56_892" style="mask-type:alpha" maskUnits="userSpaceOnUse" x="15" y="11" width="5" height="5">
<path fill-rule="evenodd" clip-rule="evenodd" d="M15.9795 11.3329H19.1406V15.1069H15.9795V11.3329Z" fill="white"/>
</mask>
<g mask="url(#mask0_56_892)">
<path fill-rule="evenodd" clip-rule="evenodd" d="M17.5486 15.1069C17.297 15.1069 17.0596 14.9536 16.9646 14.7045C16.8413 14.3821 17.0037 14.0204 17.3262 13.898C17.8911 13.683 17.8911 13.4455 17.8911 13.3314C17.8911 12.9664 17.427 12.7115 16.5121 12.5748C16.1714 12.5232 15.9356 12.2057 15.9864 11.8633C16.0372 11.5217 16.3538 11.2942 16.6979 11.3384C18.7168 11.6408 19.1409 12.589 19.1409 13.3314C19.1409 13.7846 18.9626 14.612 17.7711 15.0661C17.6978 15.0936 17.6228 15.1069 17.5486 15.1069Z" fill="black"/>
</g>
<path fill-rule="evenodd" clip-rule="evenodd" d="M10.071 12.9264C8.09135 12.9264 5.73088 13.1697 5.73088 14.3278C5.73088 15.4952 8.09135 15.7401 10.071 15.7401C12.0507 15.7401 14.4104 15.4977 14.4104 14.342C14.4104 13.1722 12.0507 12.9264 10.071 12.9264ZM10.0706 16.9898C8.68833 16.9898 4.48065 16.9898 4.48065 14.3277C4.48065 11.6765 8.68833 11.6765 10.0706 11.6765C11.4529 11.6765 15.6597 11.6765 15.6597 14.3419C15.6597 16.9898 11.5995 16.9898 10.0706 16.9898Z" fill="black"/>
<path fill-rule="evenodd" clip-rule="evenodd" d="M10.0707 4.24937C8.66097 4.24937 7.51448 5.39669 7.51448 6.80647C7.51198 7.4897 7.7736 8.12876 8.2527 8.61119C8.73179 9.09362 9.37002 9.36107 10.0499 9.36357L10.0707 9.98848V9.36357C11.4805 9.36357 12.6279 8.21708 12.6279 6.80647C12.6279 5.39669 11.4805 4.24937 10.0707 4.24937ZM10.0704 10.6136H10.0479C9.03138 10.6103 8.07903 10.212 7.36581 9.49214C6.65092 8.77309 6.26015 7.81824 6.26432 6.80423C6.26432 4.70789 7.97155 2.99982 10.0704 2.99982C12.1701 2.99982 13.8773 4.70788 13.8773 6.80673C13.8773 8.90557 12.1701 10.6136 10.0704 10.6136Z" fill="black"/>
<path fill-rule="evenodd" clip-rule="evenodd" d="M5.07073 9.7879C5.0424 9.7879 5.01324 9.78624 4.98408 9.78207C3.50514 9.5746 2.38865 8.29147 2.38531 6.79753C2.38531 5.31026 3.44932 4.05713 4.91409 3.81633C5.26487 3.76134 5.57565 3.99214 5.63231 4.33125C5.68814 4.67203 5.45734 4.99365 5.11739 5.04947C4.25836 5.19028 3.63512 5.92517 3.63512 6.79587C3.63679 7.67073 4.29085 8.42311 5.15655 8.54393C5.499 8.59142 5.73646 8.90721 5.68897 9.24965C5.64481 9.5621 5.37735 9.7879 5.07073 9.7879Z" fill="black"/>
<path fill-rule="evenodd" clip-rule="evenodd" d="M2.59302 15.1072C2.51887 15.1072 2.44388 15.0939 2.37056 15.0664C1.17824 14.6115 0.999939 13.7841 0.999939 13.3317C0.999939 12.5901 1.42404 11.6411 3.44373 11.3386C3.78784 11.2953 4.10279 11.5219 4.15445 11.8636C4.20527 12.206 3.96948 12.5235 3.6287 12.5751C2.71384 12.7118 2.24975 12.9667 2.24975 13.3317C2.24975 13.4458 2.24974 13.6824 2.81549 13.8982C3.13794 14.0207 3.30042 14.3823 3.1771 14.7048C3.08212 14.9539 2.84465 15.1072 2.59302 15.1072Z" fill="black"/>
</g>
<defs>
<clipPath id="clip0_56_892">
<rect width="20" height="20" fill="white"/>
</clipPath>
</defs>
</svg>
