<svg width="23" height="14" viewBox="0 0 23 14" fill="none" xmlns="http://www.w3.org/2000/svg">
<path opacity="0.9" d="M15.5114 6C17.228 6 18.6033 4.66 18.6033 3C18.6033 1.34 17.228 0 15.5114 0C13.7948 0 12.4091 1.34 12.4091 3C12.4091 4.66 13.7948 6 15.5114 6ZM7.23864 6C8.95523 6 10.3306 4.66 10.3306 3C10.3306 1.34 8.95523 0 7.23864 0C5.52205 0 4.13636 1.34 4.13636 3C4.13636 4.66 5.52205 6 7.23864 6ZM7.23864 8C4.8292 8 0 9.17 0 11.5V14H14.4773V11.5C14.4773 9.17 9.64807 8 7.23864 8ZM15.5114 8C15.2115 8 14.8702 8.02 14.5083 8.05C15.7078 8.89 16.5455 10.02 16.5455 11.5V14H22.75V11.5C22.75 9.17 17.9208 8 15.5114 8Z" fill="#1DB385"/>
</svg>
