<svg width="20" height="20" viewBox="0 0 20 20" fill="none" xmlns="http://www.w3.org/2000/svg">
<g opacity="0.6">
<mask id="mask0_242_1095" style="mask-type:alpha" maskUnits="userSpaceOnUse" x="1" y="1" width="16" height="18">
<path fill-rule="evenodd" clip-rule="evenodd" d="M1.59479 1.5952H16.9726V18.1182H1.59479V1.5952Z" fill="white"/>
</mask>
<g mask="url(#mask0_242_1095)">
<path fill-rule="evenodd" clip-rule="evenodd" d="M5.74301 13.9071C5.92562 13.9071 6.10823 13.9302 6.28684 13.9781C6.82589 14.1232 7.29396 14.4836 7.57146 14.9677C7.75167 15.2715 7.85135 15.6263 7.85454 15.9883C7.85454 16.5066 8.27078 16.9221 8.78272 16.9221H9.78186C10.2914 16.9221 10.7077 16.509 10.71 15.9995C10.7069 15.4365 10.9269 14.9015 11.3296 14.4988C11.7267 14.1017 12.2817 13.8633 12.8367 13.8792C13.2003 13.888 13.5504 13.9861 13.859 14.1615C14.3031 14.4159 14.8701 14.2644 15.1269 13.8258L15.6563 12.9431C15.7744 12.7397 15.8086 12.4845 15.7456 12.2493C15.6834 12.0141 15.5272 11.8099 15.3166 11.6895C14.8238 11.4057 14.4722 10.9479 14.3263 10.3993C14.1819 9.86109 14.2609 9.2734 14.5424 8.78938C14.7258 8.47042 14.9945 8.20169 15.3166 8.01669C15.7488 7.76392 15.9003 7.19856 15.6492 6.75839C15.6388 6.74085 15.6292 6.72251 15.6213 6.70337L15.154 5.89321C14.8996 5.45065 14.3334 5.29834 13.8893 5.55112C13.4093 5.835 12.8383 5.91633 12.2897 5.772C11.7419 5.63006 11.2826 5.28319 10.9963 4.79359C10.8129 4.48738 10.7132 4.13094 10.71 3.76813C10.7172 3.49541 10.6215 3.25061 10.4477 3.07119C10.2747 2.89258 10.0315 2.79131 9.78186 2.79131H8.78272C8.53552 2.79131 8.30428 2.88779 8.12964 3.06163C7.95581 3.23626 7.86092 3.4683 7.86251 3.7155C7.84577 4.8813 6.89287 5.81985 5.73903 5.81985C5.36903 5.81586 5.01259 5.71618 4.7032 5.53118C4.26862 5.28399 3.70086 5.43629 3.44649 5.87885L2.90665 6.76636C2.65945 7.19537 2.81096 7.76232 3.25113 8.01829C3.9042 8.39626 4.31168 9.10116 4.31168 9.8571C4.31168 10.613 3.9042 11.3171 3.24953 11.6959C2.81176 11.9495 2.66025 12.5133 2.91383 12.9518L3.41699 13.8194C3.54138 14.0435 3.74472 14.2053 3.97996 14.2715C4.21439 14.3369 4.47275 14.309 4.68805 14.1894C5.00462 14.0036 5.37302 13.9071 5.74301 13.9071ZM9.78187 18.1182H8.78272C7.61133 18.1182 6.65843 17.1661 6.65843 15.9947C6.65684 15.8504 6.61538 15.7005 6.53803 15.5705C6.41283 15.352 6.21029 15.1957 5.97665 15.1335C5.74461 15.0713 5.49024 15.1056 5.28132 15.2268C4.78055 15.5059 4.19127 15.5737 3.65222 15.4222C3.11397 15.2699 2.64909 14.8999 2.37638 14.4095L1.878 13.5507C1.2951 12.5396 1.64197 11.2438 2.65148 10.6601C2.93775 10.495 3.11557 10.1872 3.11557 9.8571C3.11557 9.52698 2.93775 9.21838 2.65148 9.05332C1.64117 8.46643 1.2951 7.16746 1.8772 6.15635L2.41784 5.26884C2.99277 4.26889 4.29254 3.91644 5.30604 4.49855C5.44399 4.58068 5.5939 4.62214 5.7462 4.62374C6.24299 4.62374 6.65843 4.21387 6.66641 3.70991C6.66322 3.15412 6.88251 2.62066 7.282 2.21797C7.6831 1.81608 8.21576 1.5952 8.78272 1.5952H9.78187C10.3528 1.5952 10.9078 1.82964 11.3057 2.23711C11.7028 2.64698 11.9221 3.20915 11.9054 3.77929C11.9069 3.90767 11.9492 4.05599 12.0258 4.18596C12.1525 4.40126 12.3527 4.55277 12.5903 4.61497C12.8279 4.67398 13.0767 4.64208 13.2881 4.51689C14.3087 3.93399 15.6077 4.28325 16.1906 5.29595L16.6874 6.15635C16.7001 6.17947 16.7113 6.2018 16.7209 6.22493C17.2488 7.22248 16.8963 8.47839 15.9155 9.05172C15.7728 9.13386 15.6571 9.24868 15.5774 9.38743C15.4538 9.60193 15.4195 9.8571 15.4817 10.0915C15.5455 10.3308 15.6978 10.5293 15.9123 10.6521C16.3963 10.9304 16.7576 11.3993 16.9019 11.9407C17.0462 12.4814 16.9673 13.0682 16.6858 13.5523L16.1563 14.4342C15.5734 15.4357 14.2744 15.7826 13.2641 15.1989C13.1294 15.1216 12.9739 15.0793 12.8192 15.0753H12.8144C12.5839 15.0753 12.3471 15.1734 12.1749 15.3448C12.0002 15.5195 11.9046 15.7523 11.9061 15.9995C11.9006 17.1709 10.9477 18.1182 9.78187 18.1182Z" fill="black"/>
</g>
<path fill-rule="evenodd" clip-rule="evenodd" d="M9.28582 8.35248C8.45652 8.35248 7.78192 9.02788 7.78192 9.85718C7.78192 10.6865 8.45652 11.3603 9.28582 11.3603C10.1151 11.3603 10.7897 10.6865 10.7897 9.85718C10.7897 9.02788 10.1151 8.35248 9.28582 8.35248ZM9.28582 12.5564C7.79707 12.5564 6.58582 11.3459 6.58582 9.85718C6.58582 8.36843 7.79707 7.15637 9.28582 7.15637C10.7746 7.15637 11.9858 8.36843 11.9858 9.85718C11.9858 11.3459 10.7746 12.5564 9.28582 12.5564Z" fill="black"/>
</g>
</svg>
