<svg width="16" height="16" viewBox="0 0 16 16" fill="none" xmlns="http://www.w3.org/2000/svg">
<g clip-path="url(#clip0_56_983)">
<path d="M8.62839 13.452C5.83115 11.762 3.55536 8.04442 3.55536 5.16489C3.55536 5.15391 3.556 5.14343 3.556 5.1327L1.99115 4.63629C1.9624 4.87025 1.94604 5.11289 1.94604 5.36601C1.94604 8.67626 4.43049 12.7702 7.60198 14.6864C7.96205 14.9037 8.41386 15.1405 8.91984 15.3295L9.32221 13.8207C9.09221 13.7148 8.86005 13.5919 8.62839 13.452Z" fill="#1F5C9C"/>
<path d="M7.75674 13.9663C4.95937 12.2762 2.68371 8.55858 2.68371 5.67906C2.68371 5.6682 2.68422 5.65772 2.68435 5.64686L1.52186 4.94934C1.49298 5.1833 1.47662 5.42607 1.47662 5.67906C1.47662 8.98931 3.96107 13.0832 7.13269 14.9994C7.49263 15.2168 7.94444 15.4535 8.45055 15.6425V14.3349C8.22056 14.2291 7.98827 14.1062 7.75674 13.9663Z" fill="#FFD900"/>
<path d="M1.47662 8.5568L10.5963 3.52759L14.5525 5.87455L5.56707 10.9038L1.47662 8.5568Z" fill="#0EC478"/>
<path d="M1.47662 8.55679V12.446L5.56707 14.86V10.9038L1.47662 8.55679Z" fill="#089970"/>
<path d="M5.56702 14.8601L14.5525 9.76378V5.87457L5.56702 10.9038V14.8601Z" fill="#107054"/>
<path d="M3.48827 8.49893C3.48827 8.36336 3.38529 8.24133 3.22046 8.15419L9.84123 4.47607C9.99941 4.56411 10.2191 4.61893 10.4622 4.61893C10.6981 4.61893 10.9117 4.56718 11.0686 4.48361L12.7562 5.46479C12.583 5.55219 12.4739 5.67728 12.4739 5.81668C12.4739 5.94829 12.5854 6.05626 12.7421 6.14277L6.22712 9.79622C6.06728 9.69439 5.83115 9.6296 5.56704 9.6296C5.30536 9.6296 5.07115 9.69324 4.91143 9.79354L3.23055 8.83855C3.38963 8.75179 3.48827 8.63169 3.48827 8.49893Z" fill="#FFFBDB"/>
<path d="M9.72457 7.14859C9.72457 6.63009 8.95895 6.20984 8.01457 6.20984C7.07018 6.20984 6.30469 6.63009 6.30469 7.14859C6.30469 7.66697 7.07018 8.08735 8.01457 8.08735C8.95895 8.08735 9.72457 7.66697 9.72457 7.14859Z" fill="#0EC478"/>
<path d="M14.5525 6.61206L5.56702 11.6413V12.3118L14.5525 7.28262V6.61206Z" fill="#089970"/>
<path d="M14.5525 7.81915L5.56702 12.8484V13.5189L14.5525 8.48971V7.81915Z" fill="#089970"/>
<path d="M14.5525 9.16028L5.56702 14.1895V14.8601L14.5525 9.76376V9.16028Z" fill="#089970"/>
<path d="M5.56707 11.6413L1.47662 9.29431V9.96487L5.56707 12.3118V11.6413Z" fill="#0EC478"/>
<path d="M5.56707 12.8484L1.47662 10.5014V11.172L5.56707 13.5189V12.8484Z" fill="#0EC478"/>
<path d="M5.56707 14.1895L1.47662 11.8425V12.446L5.56707 14.8601V14.1895Z" fill="#0EC478"/>
<path d="M9.99276 3.32635L6.84108 0V1.34904C6.47565 1.2642 5.71615 1.42149 5.36925 1.42149C4.71019 1.42149 4.11706 1.57687 3.60622 1.88327C2.70439 2.42452 2.1455 3.38986 1.99115 4.64051L2.43798 4.78222L2.41549 4.80164L2.81785 5.60636L3.28716 5.80748L3.55536 5.27108V5.13666L3.55613 5.13692C3.56316 3.98784 3.94341 3.12894 4.62969 2.71713C4.95015 2.52482 5.33437 2.42733 5.77174 2.42733C6.1051 2.42733 6.4653 2.48675 6.84121 2.59944V3.32648H9.99276V3.32635Z" fill="#1F5C9C"/>
<path d="M3.7579 3.2272C4.07849 3.0349 4.46271 2.9374 4.89995 2.9374C5.23331 2.9374 5.59351 2.99669 5.96942 3.10939V3.86288H9.12111L5.96942 0.510071V1.85911C5.60399 1.77414 5.24673 1.73032 4.89995 1.73032C4.24089 1.73032 3.64763 1.88569 3.13692 2.19222C2.23496 2.73335 1.67607 3.69868 1.52185 4.94947L2.68434 5.64699C2.69137 4.49779 3.07163 3.63889 3.7579 3.2272Z" fill="#FFD900"/>
<path d="M5.96942 0.510076L6.8411 0L9.99277 3.3528L9.1211 3.86288L5.96942 0.510076Z" fill="#1F5C9C"/>
<path d="M13.3429 11.4402C13.3435 11.4767 13.3456 11.5136 13.3456 11.5498C13.3456 12.7153 12.5617 13.8025 11.869 14.218C11.5465 14.4116 11.5686 14.3236 11.141 14.3236H11.1408C10.5979 14.3236 9.9712 14.1339 9.32619 13.8372L9.32223 13.8207L8.91987 13.9213C8.91987 13.9213 8.71875 14.3236 8.71875 14.3906C8.71875 14.4577 8.85279 14.7259 8.91987 14.7259C8.93839 14.7259 8.99832 14.7416 9.0746 14.7637L8.91987 15.3441C9.47607 15.5517 10.0979 15.7317 10.7384 15.7317H10.7387C11.3881 15.7317 12.3796 15.3595 12.8924 15.0518C13.8333 14.4873 14.4023 13.4545 14.5265 12.1241L13.3429 11.4402Z" fill="#1F5C9C"/>
<path d="M12.4711 11.9398C12.4717 11.9763 12.4739 12.0132 12.4739 12.0494C12.4739 13.2149 12.0923 14.0857 11.3995 14.5014C11.077 14.6948 10.6968 14.793 10.2692 14.793H10.2691C9.72506 14.7928 9.09679 14.6327 8.45038 14.3349V15.6425C9.00671 15.8502 9.62846 15.9999 10.269 16H10.2692C10.9186 16 11.5079 15.844 12.0205 15.5364C12.9615 14.9718 13.5306 13.9466 13.6546 12.6162L12.4711 11.9398Z" fill="#FFD900"/>
<path d="M12.4711 11.9398L13.3429 11.4402L14.5265 12.1165L13.6548 12.6161L12.4711 11.9398Z" fill="#639DEB"/>
</g>
<defs>
<clipPath id="clip0_56_983">
<rect width="16" height="16" fill="white"/>
</clipPath>
</defs>
</svg>
